{
	"asset":{
		"generator":"Khronos glTF Blender I/O v4.0.44",
		"version":"2.0"
	},
	"scene":0,
	"scenes":[
		{
			"name":"Scene",
			"nodes":[
				0
			]
		}
	],
	"nodes":[
		{
			"mesh":0,
			"name":"rouge",
			"rotation":[
				0,
				0.5,
				0,
				0.8660253882408142
			],
			"scale":[
				0.7969480156898499,
				0.7969480156898499,
				0.7969480156898499
			]
		}
	],
	"materials":[
		{
			"doubleSided":true,
			"name":"Material.002",
			"pbrMetallicRoughness":{
				"baseColorFactor":[
					0.06733889877796173,
					0.036613330245018005,
					0.8001489639282227,
					1
				],
				"metallicFactor":0,
				"roughnessFactor":0.5
			}
		},
		{
			"doubleSided":true,
			"name":"Material.006",
			"pbrMetallicRoughness":{
				"baseColorFactor":[
					0,
					0.5830951929092407,
					1,
					1
				],
				"metallicFactor":0,
				"roughnessFactor":0.5
			}
		},
		{
			"doubleSided":true,
			"name":"alll.002",
			"pbrMetallicRoughness":{
				"baseColorFactor":[
					0.8004899024963379,
					0.05630215257406235,
					0.021342342719435692,
					1
				],
				"metallicFactor":0,
				"roughnessFactor":0.5
			}
		}
	],
	"meshes":[
		{
			"name":"Sphere.004",
			"primitives":[
				{
					"attributes":{
						"POSITION":0,
						"NORMAL":1,
						"TEXCOORD_0":2
					},
					"indices":3,
					"material":0
				},
				{
					"attributes":{
						"POSITION":4,
						"NORMAL":5,
						"TEXCOORD_0":6
					},
					"indices":7,
					"material":1
				},
				{
					"attributes":{
						"POSITION":8,
						"NORMAL":9,
						"TEXCOORD_0":10
					},
					"indices":11,
					"material":2
				}
			]
		}
	],
	"accessors":[
		{
			"bufferView":0,
			"componentType":5126,
			"count":1536,
			"max":[
				10.583283424377441,
				1.5070445537567139,
				9.681510925292969
			],
			"min":[
				-10.445627212524414,
				0.6355253458023071,
				-9.443078994750977
			],
			"type":"VEC3"
		},
		{
			"bufferView":1,
			"componentType":5126,
			"count":1536,
			"type":"VEC3"
		},
		{
			"bufferView":2,
			"componentType":5126,
			"count":1536,
			"type":"VEC2"
		},
		{
			"bufferView":3,
			"componentType":5123,
			"count":2268,
			"type":"SCALAR"
		},
		{
			"bufferView":4,
			"componentType":5126,
			"count":132,
			"max":[
				7.251145362854004,
				6.536766052246094,
				7.251923084259033
			],
			"min":[
				-7.249030113220215,
				-0.7133243083953857,
				-7.248251438140869
			],
			"type":"VEC3"
		},
		{
			"bufferView":5,
			"componentType":5126,
			"count":132,
			"type":"VEC3"
		},
		{
			"bufferView":6,
			"componentType":5126,
			"count":132,
			"type":"VEC2"
		},
		{
			"bufferView":7,
			"componentType":5123,
			"count":180,
			"type":"SCALAR"
		},
		{
			"bufferView":8,
			"componentType":5126,
			"count":460,
			"max":[
				13.744864463806152,
				0.7247316837310791,
				13.862017631530762
			],
			"min":[
				-13.742746353149414,
				-3.180577039718628,
				-13.858345031738281
			],
			"type":"VEC3"
		},
		{
			"bufferView":9,
			"componentType":5126,
			"count":460,
			"type":"VEC3"
		},
		{
			"bufferView":10,
			"componentType":5126,
			"count":460,
			"type":"VEC2"
		},
		{
			"bufferView":11,
			"componentType":5123,
			"count":636,
			"type":"SCALAR"
		}
	],
	"bufferViews":[
		{
			"buffer":0,
			"byteLength":18432,
			"byteOffset":0,
			"target":34962
		},
		{
			"buffer":0,
			"byteLength":18432,
			"byteOffset":18432,
			"target":34962
		},
		{
			"buffer":0,
			"byteLength":12288,
			"byteOffset":36864,
			"target":34962
		},
		{
			"buffer":0,
			"byteLength":4536,
			"byteOffset":49152,
			"target":34963
		},
		{
			"buffer":0,
			"byteLength":1584,
			"byteOffset":53688,
			"target":34962
		},
		{
			"buffer":0,
			"byteLength":1584,
			"byteOffset":55272,
			"target":34962
		},
		{
			"buffer":0,
			"byteLength":1056,
			"byteOffset":56856,
			"target":34962
		},
		{
			"buffer":0,
			"byteLength":360,
			"byteOffset":57912,
			"target":34963
		},
		{
			"buffer":0,
			"byteLength":5520,
			"byteOffset":58272,
			"target":34962
		},
		{
			"buffer":0,
			"byteLength":5520,
			"byteOffset":63792,
			"target":34962
		},
		{
			"buffer":0,
			"byteLength":3680,
			"byteOffset":69312,
			"target":34962
		},
		{
			"buffer":0,
			"byteLength":1272,
			"byteOffset":72992,
			"target":34963
		}
	],
	"buffers":[
		{
			"byteLength":74264,
			"uri":"FORCE%20ROUGE.bin"
		}
	]
}
